name rise44.9368peak50.754fall52.0217.mot
datacolumns 19
datarows 36
range 20.60492400000000 20.66326000000000
endheader
time	ground_force1_vx	ground_force1_vy	ground_force1_vz	ground_force1_px	ground_force1_py	ground_force1_pz	ground_force2_vx	ground_force2_vy	ground_force2_vz	ground_force2_px	ground_force2_py	ground_force2_pz	ground_torque1_x	ground_torque1_y	ground_torque1_z	ground_torque2_x	ground_torque2_y	ground_torque2_z	
20.60492400000000	61.59006900000000	780.28529000000003	68.10154600000000	0.39840700000000	0.00000000000000	0.15405600000000	0.00000000000000	0.00000000000000	0.00000000000000	0.00000000000000	0.00000000000000	0.00000000000000	0.00000000000000	32.97368200000000	0.00000000000000	0.00000000000000	0.00000000000000	0.00000000000000	
20.60658900000000	60.76675300000000	781.33239900000001	68.01242600000000	0.39726200000000	0.00000000000000	0.15399800000000	0.00000000000000	0.00000000000000	0.00000000000000	0.00000000000000	0.00000000000000	0.00000000000000	0.00000000000000	32.98366200000000	0.00000000000000	0.00000000000000	0.00000000000000	0.00000000000000	
20.60825900000000	59.95231300000000	782.27656100000002	67.92353900000001	0.39612000000000	0.00000000000000	0.15394200000000	0.00000000000000	0.00000000000000	0.00000000000000	0.00000000000000	0.00000000000000	0.00000000000000	0.00000000000000	32.99265000000000	0.00000000000000	0.00000000000000	0.00000000000000	0.00000000000000	
20.60992800000000	59.14732500000000	783.11841200000003	67.83518599999999	0.39497900000000	0.00000000000000	0.15388900000000	0.00000000000000	0.00000000000000	0.00000000000000	0.00000000000000	0.00000000000000	0.00000000000000	0.00000000000000	33.00079500000000	0.00000000000000	0.00000000000000	0.00000000000000	0.00000000000000	
20.61159500000000	58.35226700000000	783.85864800000002	67.74759800000000	0.39384000000000	0.00000000000000	0.15383700000000	0.00000000000000	0.00000000000000	0.00000000000000	0.00000000000000	0.00000000000000	0.00000000000000	0.00000000000000	33.00820500000000	0.00000000000000	0.00000000000000	0.00000000000000	0.00000000000000	
20.61325700000000	57.56752600000000	784.49802799999998	67.66093499999999	0.39270300000000	0.00000000000000	0.15378800000000	0.00000000000000	0.00000000000000	0.00000000000000	0.00000000000000	0.00000000000000	0.00000000000000	0.00000000000000	33.01494900000000	0.00000000000000	0.00000000000000	0.00000000000000	0.00000000000000	
20.61492500000000	56.79339600000000	785.03738999999996	67.57529100000001	0.39156700000000	0.00000000000000	0.15374100000000	0.00000000000000	0.00000000000000	0.00000000000000	0.00000000000000	0.00000000000000	0.00000000000000	0.00000000000000	33.02106000000000	0.00000000000000	0.00000000000000	0.00000000000000	0.00000000000000	
20.61659200000000	56.03008900000000	785.47765100000004	67.49070000000000	0.39043200000000	0.00000000000000	0.15369600000000	0.00000000000000	0.00000000000000	0.00000000000000	0.00000000000000	0.00000000000000	0.00000000000000	0.00000000000000	33.02653400000000	0.00000000000000	0.00000000000000	0.00000000000000	0.00000000000000	
20.61825500000000	55.27773300000000	785.81981499999995	67.40713500000000	0.38929700000000	0.00000000000000	0.15365400000000	0.00000000000000	0.00000000000000	0.00000000000000	0.00000000000000	0.00000000000000	0.00000000000000	0.00000000000000	33.03133700000000	0.00000000000000	0.00000000000000	0.00000000000000	0.00000000000000	
20.61992300000000	54.53638000000000	786.06498299999998	67.32451900000000	0.38816300000000	0.00000000000000	0.15361300000000	0.00000000000000	0.00000000000000	0.00000000000000	0.00000000000000	0.00000000000000	0.00000000000000	0.00000000000000	33.03540600000000	0.00000000000000	0.00000000000000	0.00000000000000	0.00000000000000	
20.62159200000000	53.80600700000000	786.21435399999996	67.24272499999999	0.38702800000000	0.00000000000000	0.15357500000000	0.00000000000000	0.00000000000000	0.00000000000000	0.00000000000000	0.00000000000000	0.00000000000000	0.00000000000000	33.03865100000000	0.00000000000000	0.00000000000000	0.00000000000000	0.00000000000000	
20.62325800000000	53.08652600000000	786.26923199999999	67.16158100000000	0.38589300000000	0.00000000000000	0.15353900000000	0.00000000000000	0.00000000000000	0.00000000000000	0.00000000000000	0.00000000000000	0.00000000000000	0.00000000000000	33.04095900000000	0.00000000000000	0.00000000000000	0.00000000000000	0.00000000000000	
20.62492900000000	52.37778200000000	786.23103000000003	67.08087600000000	0.38475500000000	0.00000000000000	0.15350500000000	0.00000000000000	0.00000000000000	0.00000000000000	0.00000000000000	0.00000000000000	0.00000000000000	0.00000000000000	33.04219600000000	0.00000000000000	0.00000000000000	0.00000000000000	0.00000000000000	
20.62659300000000	51.67956700000000	786.10127100000000	67.00036500000000	0.38361600000000	0.00000000000000	0.15347400000000	0.00000000000000	0.00000000000000	0.00000000000000	0.00000000000000	0.00000000000000	0.00000000000000	0.00000000000000	33.04221200000000	0.00000000000000	0.00000000000000	0.00000000000000	0.00000000000000	
20.62826100000000	50.99161500000000	785.88159599999994	66.91977100000000	0.38247400000000	0.00000000000000	0.15344400000000	0.00000000000000	0.00000000000000	0.00000000000000	0.00000000000000	0.00000000000000	0.00000000000000	0.00000000000000	33.04083900000000	0.00000000000000	0.00000000000000	0.00000000000000	0.00000000000000	
20.62992800000000	50.31361700000000	785.57375900000000	66.83879399999999	0.38132900000000	0.00000000000000	0.15341700000000	0.00000000000000	0.00000000000000	0.00000000000000	0.00000000000000	0.00000000000000	0.00000000000000	0.00000000000000	33.03789900000000	0.00000000000000	0.00000000000000	0.00000000000000	0.00000000000000	
20.63159700000000	49.64522100000000	785.17963599999996	66.75711200000001	0.38018000000000	0.00000000000000	0.15339100000000	0.00000000000000	0.00000000000000	0.00000000000000	0.00000000000000	0.00000000000000	0.00000000000000	0.00000000000000	33.03320600000000	0.00000000000000	0.00000000000000	0.00000000000000	0.00000000000000	
20.63325500000000	48.98603700000000	784.70121900000004	66.67438700000000	0.37902600000000	0.00000000000000	0.15336800000000	0.00000000000000	0.00000000000000	0.00000000000000	0.00000000000000	0.00000000000000	0.00000000000000	0.00000000000000	33.02656500000000	0.00000000000000	0.00000000000000	0.00000000000000	0.00000000000000	
20.63493900000000	48.33564700000000	784.14061800000002	66.59027000000000	0.37786600000000	0.00000000000000	0.15334600000000	0.00000000000000	0.00000000000000	0.00000000000000	0.00000000000000	0.00000000000000	0.00000000000000	0.00000000000000	33.01777800000000	0.00000000000000	0.00000000000000	0.00000000000000	0.00000000000000	
20.63659100000000	47.69360400000000	783.50006199999996	66.50440399999999	0.37670100000000	0.00000000000000	0.15332700000000	0.00000000000000	0.00000000000000	0.00000000000000	0.00000000000000	0.00000000000000	0.00000000000000	0.00000000000000	33.00664500000000	0.00000000000000	0.00000000000000	0.00000000000000	0.00000000000000	
20.63825600000000	47.05944300000000	782.78189499999996	66.41642899999999	0.37552900000000	0.00000000000000	0.15330900000000	0.00000000000000	0.00000000000000	0.00000000000000	0.00000000000000	0.00000000000000	0.00000000000000	0.00000000000000	32.99296800000000	0.00000000000000	0.00000000000000	0.00000000000000	0.00000000000000	
20.63992500000000	46.43268400000000	781.98857399999997	66.32598600000000	0.37434900000000	0.00000000000000	0.15329300000000	0.00000000000000	0.00000000000000	0.00000000000000	0.00000000000000	0.00000000000000	0.00000000000000	0.00000000000000	32.97654900000000	0.00000000000000	0.00000000000000	0.00000000000000	0.00000000000000	
20.64159200000000	45.81283700000000	781.12266599999998	66.23272200000000	0.37316100000000	0.00000000000000	0.15327900000000	0.00000000000000	0.00000000000000	0.00000000000000	0.00000000000000	0.00000000000000	0.00000000000000	0.00000000000000	32.95720000000000	0.00000000000000	0.00000000000000	0.00000000000000	0.00000000000000	
20.64325700000000	45.19940500000000	780.18684399999995	66.13629000000000	0.37196500000000	0.00000000000000	0.15326700000000	0.00000000000000	0.00000000000000	0.00000000000000	0.00000000000000	0.00000000000000	0.00000000000000	0.00000000000000	32.93473500000000	0.00000000000000	0.00000000000000	0.00000000000000	0.00000000000000	
20.64492500000000	44.59189200000000	779.18388300000004	66.03635600000000	0.37075900000000	0.00000000000000	0.15325600000000	0.00000000000000	0.00000000000000	0.00000000000000	0.00000000000000	0.00000000000000	0.00000000000000	0.00000000000000	32.90898000000000	0.00000000000000	0.00000000000000	0.00000000000000	0.00000000000000	
20.64659000000000	43.98980800000000	778.11665600000003	65.93260100000001	0.36954300000000	0.00000000000000	0.15324600000000	0.00000000000000	0.00000000000000	0.00000000000000	0.00000000000000	0.00000000000000	0.00000000000000	0.00000000000000	32.87977100000000	0.00000000000000	0.00000000000000	0.00000000000000	0.00000000000000	
20.64825400000000	43.39266700000000	776.98812499999997	65.82472199999999	0.36831700000000	0.00000000000000	0.15323800000000	0.00000000000000	0.00000000000000	0.00000000000000	0.00000000000000	0.00000000000000	0.00000000000000	0.00000000000000	32.84695500000000	0.00000000000000	0.00000000000000	0.00000000000000	0.00000000000000	
20.64992500000000	42.79999900000000	775.80133899999998	65.71243900000000	0.36708100000000	0.00000000000000	0.15323100000000	0.00000000000000	0.00000000000000	0.00000000000000	0.00000000000000	0.00000000000000	0.00000000000000	0.00000000000000	32.81039500000000	0.00000000000000	0.00000000000000	0.00000000000000	0.00000000000000	
20.65160600000000	42.21135000000000	774.55942400000004	65.59549100000000	0.36583200000000	0.00000000000000	0.15322500000000	0.00000000000000	0.00000000000000	0.00000000000000	0.00000000000000	0.00000000000000	0.00000000000000	0.00000000000000	32.76996700000000	0.00000000000000	0.00000000000000	0.00000000000000	0.00000000000000	
20.65325800000000	41.62628200000000	773.26557800000000	65.47364500000000	0.36457300000000	0.00000000000000	0.15322100000000	0.00000000000000	0.00000000000000	0.00000000000000	0.00000000000000	0.00000000000000	0.00000000000000	0.00000000000000	32.72556300000000	0.00000000000000	0.00000000000000	0.00000000000000	0.00000000000000	
20.65492700000000	41.04438400000000	771.92306199999996	65.34669000000000	0.36330100000000	0.00000000000000	0.15321700000000	0.00000000000000	0.00000000000000	0.00000000000000	0.00000000000000	0.00000000000000	0.00000000000000	0.00000000000000	32.67709100000000	0.00000000000000	0.00000000000000	0.00000000000000	0.00000000000000	
20.65659600000000	40.46526800000000	770.53519400000005	65.21444700000001	0.36201700000000	0.00000000000000	0.15321500000000	0.00000000000000	0.00000000000000	0.00000000000000	0.00000000000000	0.00000000000000	0.00000000000000	0.00000000000000	32.62447800000000	0.00000000000000	0.00000000000000	0.00000000000000	0.00000000000000	
20.65825800000000	39.88857700000000	769.10533799999996	65.07676300000000	0.36072100000000	0.00000000000000	0.15321300000000	0.00000000000000	0.00000000000000	0.00000000000000	0.00000000000000	0.00000000000000	0.00000000000000	0.00000000000000	32.56766800000000	0.00000000000000	0.00000000000000	0.00000000000000	0.00000000000000	
20.65992700000000	39.31398000000000	767.63689899999997	64.93351600000000	0.35941200000000	0.00000000000000	0.15321200000000	0.00000000000000	0.00000000000000	0.00000000000000	0.00000000000000	0.00000000000000	0.00000000000000	0.00000000000000	32.50662300000000	0.00000000000000	0.00000000000000	0.00000000000000	0.00000000000000	
20.66159600000000	38.74118400000000	766.13331200000005	64.78461299999999	0.35809100000000	0.00000000000000	0.15321200000000	0.00000000000000	0.00000000000000	0.00000000000000	0.00000000000000	0.00000000000000	0.00000000000000	0.00000000000000	32.44132400000000	0.00000000000000	0.00000000000000	0.00000000000000	0.00000000000000	
20.66326000000000	38.16992500000000	764.59803499999998	64.62999300000000	0.35675700000000	0.00000000000000	0.15321200000000	0.00000000000000	0.00000000000000	0.00000000000000	0.00000000000000	0.00000000000000	0.00000000000000	0.00000000000000	32.37177100000000	0.00000000000000	0.00000000000000	0.00000000000000	0.00000000000000	
